<svg enable-background="new 336 336 128 128" height="128" viewBox="336 336 128 128" width="128" xmlns="http://www.w3.org/2000/svg"><g fill="#3e4b5b"><path d="m378.592 461.644c0 .874.426 1.675 1.104 2.084.677.408 1.5.355 2.132-.138l14.246-11.085-17.48-9.495z"/><path d="m463.336 336.626c-.392-.411-.896-.626-1.407-.626-.308 0-.614.078-.905.24l-122.979 68.746c-1.257.704-2.052 2.167-2.044 3.767.009 1.599.817 3.051 2.083 3.739l32.412 17.6 64.806-60.701-56.776 65.062 40.376 21.925c.496.271 1.037.405 1.573.405.457 0 .91-.095 1.341-.288.94-.424 1.688-1.272 2.062-2.345l39.976-114.926c.316-.905.11-1.939-.518-2.598z"/></g></svg>